<svg width="38" height="22" viewBox="0 0 38 22" fill="none" xmlns="http://www.w3.org/2000/svg" xmlns:xlink="http://www.w3.org/1999/xlink">
<path d="M35.627,-0.667L33.344,-0.667C32.083,-0.667 31.061,0.228 31.061,1.333L31.061,18.666C31.061,19.771 32.083,20.666 33.344,20.666L35.627,20.666C36.887,20.666 37.909,19.771 37.909,18.666L37.909,1.333C37.909,0.228 36.887,-0.667 35.627,-0.667ZM22.692,4L24.974,4C26.235,4 27.257,4.895 27.257,6L27.257,18.666C27.257,19.771 26.235,20.666 24.974,20.666L22.692,20.666C21.431,20.666 20.409,19.771 20.409,18.666L20.409,6C20.409,4.895 21.431,4 22.692,4ZM14.322,8.666L12.039,8.666C10.778,8.666 9.756,9.562 9.756,10.666L9.756,18.666C9.756,19.771 10.778,20.666 12.039,20.666L14.322,20.666C15.582,20.666 16.604,19.771 16.604,18.666L16.604,10.666C16.604,9.562 15.582,8.666 14.322,8.666ZM3.669,12.666L1.387,12.666C0.126,12.666 -0.896,13.562 -0.896,14.666L-0.896,18.666C-0.896,19.771 0.126,20.666 1.387,20.666L3.669,20.666C4.93,20.666 5.952,19.771 5.952,18.666L5.952,14.666C5.952,13.562 4.93,12.666 3.669,12.666Z" clip-rule="evenodd" fill-rule="evenodd" fill="#A0A4AB"/>
</svg>
