<svg width="34" height="34" viewBox="0 0 34 34" fill="none" xmlns="http://www.w3.org/2000/svg" xmlns:xlink="http://www.w3.org/1999/xlink">
<path d="M31.609,29.77L26.108,24.395L25.983,24.202C25.74,23.957 25.415,23.826 25.071,23.826C24.733,23.826 24.402,23.957 24.165,24.202C19.49,28.488 12.29,28.72 7.333,24.744C2.376,20.763 1.208,13.813 4.602,8.496C7.995,3.181 14.896,1.152 20.727,3.752C26.559,6.352 29.514,12.774 27.628,18.763C27.496,19.202 27.602,19.67 27.92,20.002C28.234,20.333 28.709,20.47 29.159,20.37C29.608,20.27 29.972,19.938 30.109,19.507C32.359,12.401 28.959,4.752 22.109,1.505C15.258,-1.736 7.008,0.401 2.702,6.537C-1.605,12.675 -0.68,20.963 4.883,26.051C10.439,31.133 18.965,31.482 24.94,26.871L29.808,31.632C30.309,32.127 31.121,32.127 31.628,31.632C32.127,31.138 32.127,30.338 31.628,29.839L31.609,29.77Z" clip-rule="evenodd" fill-rule="evenodd" fill="#FFFFFF"/>
</svg>
