<svg width="30" height="36" viewBox="0 0 30 36" fill="none" xmlns="http://www.w3.org/2000/svg" xmlns:xlink="http://www.w3.org/1999/xlink">
<path d="M20.749,0L8.332,0C3.213,0 0,3.571 0,9.31L0,32.983C0,34.65 1.321,36 2.947,36C3.438,36 3.924,35.874 4.36,35.635L14.463,30.024L26.226,35.669C26.543,35.804 26.901,35.804 27.225,35.669C27.54,35.536 27.794,35.276 27.927,34.952C28.125,34.348 27.886,33.687 27.358,33.363L15.673,27.774C14.904,27.338 13.986,27.338 13.219,27.774L3.101,33.363C2.988,33.426 2.848,33.426 2.729,33.363C2.623,33.293 2.56,33.167 2.56,33.026L2.56,9.31C2.574,5.069 4.655,2.651 8.379,2.651L20.79,2.651C25.573,2.651 26.267,6.624 26.267,9.007L26.267,10.089L12.832,10.089C12.494,10.103 12.172,10.251 11.932,10.505C11.7,10.764 11.581,11.102 11.594,11.453C11.606,12.15 12.157,12.706 12.832,12.726L26.226,12.726L26.226,26.627C26.226,27.351 26.802,27.941 27.513,27.941C28.215,27.941 28.793,27.365 28.8,26.642L28.8,9.007C28.8,3.445 25.727,0 20.749,0Z" clip-rule="evenodd" fill-rule="evenodd" fill="#167F71" stroke="#167F71" stroke-width="0.6" stroke-miterlimit="3.999327" stroke-linecap="round" stroke-linejoin="round"/>
</svg>
