<svg width="32" height="36" viewBox="0 0 32 36" fill="none" xmlns="http://www.w3.org/2000/svg" xmlns:xlink="http://www.w3.org/1999/xlink">
<path d="M15.239,0C20.765,0 26.962,3.895 27.663,10.154L27.663,13.415C27.902,14.589 28.458,15.687 29.259,16.58C29.308,16.636 29.353,16.691 29.385,16.756C30.118,17.86 30.539,19.132 30.602,20.446L30.553,20.777C30.609,22.577 30.012,24.341 28.858,25.735C27.396,27.317 25.393,28.309 23.24,28.512C17.932,29.088 12.573,29.088 7.272,28.512C5.148,28.294 3.181,27.302 1.746,25.735C0.578,24.363 -0.039,22.606 0.002,20.813L0.002,20.588C0.094,19.238 0.544,17.93 1.316,16.805L1.444,16.643C2.245,15.743 2.794,14.654 3.04,13.478L3.04,10.217L3.123,10.033C3.399,9.569 3.919,9.302 4.466,9.358C5.078,9.428 5.578,9.893 5.676,10.498L5.676,13.761L5.676,13.936C5.339,15.574 4.579,17.093 3.469,18.338C3.04,19.019 2.801,19.793 2.765,20.588L2.765,20.939C2.731,22.057 3.103,23.153 3.82,24.026C4.812,25.045 6.14,25.672 7.56,25.798C12.694,26.354 17.878,26.354 23.015,25.798C24.478,25.664 25.837,25.011 26.833,23.949C27.515,23.098 27.868,22.036 27.839,20.954L27.839,20.588C27.803,19.786 27.573,19.013 27.15,18.324C25.998,17.086 25.188,15.566 24.822,13.921C24.815,13.865 24.815,13.802 24.822,13.747L24.822,10.469C24.358,5.688 19.55,2.722 15.365,2.722C13.587,2.722 11.835,3.172 10.289,4.036L10.098,4.135C9.706,4.289 9.263,4.261 8.89,4.05C8.46,3.796 8.194,3.334 8.208,2.84C8.221,2.342 8.503,1.892 8.946,1.667C10.865,0.583 13.03,0.014 15.239,0L15.239,0ZM18.256,31.626C18.754,31.176 19.521,31.149 20.056,31.592C20.639,32.069 20.724,32.935 20.238,33.511C19.042,35.064 17.196,35.978 15.225,36L14.83,35.986C13.016,35.852 11.337,34.96 10.226,33.511L10.105,33.349C9.762,32.78 9.873,32.027 10.408,31.592C10.991,31.106 11.864,31.19 12.348,31.774C12.561,32.056 12.813,32.301 13.101,32.512C13.86,33.075 14.816,33.314 15.752,33.174C16.695,33.034 17.538,32.533 18.103,31.774L18.115,31.774L18.256,31.626Z" clip-rule="evenodd" fill-rule="evenodd" fill="#332DA1" stroke="#332DA1" stroke-width="0.14" stroke-miterlimit="3.999327"/>
</svg>
