<svg width="54" height="40" viewBox="0 0 54 40" fill="none" xmlns="http://www.w3.org/2000/svg" xmlns:xlink="http://www.w3.org/1999/xlink">
<path d="M52.414,20C52.414,21.516 51.172,22.758 49.655,22.758L9.38,22.758L21.861,35.31C22.966,36.414 22.966,38.139 21.861,39.24C21.379,39.726 20.689,40 19.929,40C19.24,40 18.483,39.726 18.001,39.173L0.826,21.931C-0.275,20.826 -0.275,19.102 0.826,18.068L18.001,0.826C19.102,-0.275 20.826,-0.275 21.931,0.826C23.033,1.931 23.033,3.655 21.931,4.756L9.38,17.241L49.655,17.241C51.172,17.241 52.414,18.483 52.414,20Z" clip-rule="evenodd" fill-rule="evenodd" fill="#202244"/>
</svg>
