<svg width="42" height="42" viewBox="0 0 42 42" fill="none" xmlns="http://www.w3.org/2000/svg" xmlns:xlink="http://www.w3.org/1999/xlink">
<path d="M39.51,37.212L32.634,30.494L32.478,30.252C32.174,29.946 31.768,29.782 31.338,29.782C30.916,29.782 30.502,29.946 30.206,30.252C24.362,35.61 15.362,35.9 9.166,30.93C2.97,25.954 1.51,17.266 5.752,10.62C9.994,3.976 18.62,1.44 25.908,4.69C33.198,7.94 36.892,15.968 34.534,23.454C34.37,24.002 34.502,24.588 34.9,25.002C35.292,25.416 35.886,25.588 36.448,25.462C37.01,25.338 37.464,24.922 37.636,24.384C40.448,15.502 36.198,5.94 27.636,1.882C19.072,-2.17 8.76,0.502 3.378,8.172C-2.006,15.844 -0.85,26.204 6.104,32.564C13.048,38.916 23.706,39.352 31.174,33.588L37.26,39.54C37.886,40.158 38.9,40.158 39.534,39.54C40.158,38.922 40.158,37.922 39.534,37.298L39.51,37.212Z" clip-rule="evenodd" fill-rule="evenodd" fill="#000000"/>
</svg>
