<svg width="102" height="72" viewBox="0 0 102 72" fill="none" xmlns="http://www.w3.org/2000/svg" xmlns:xlink="http://www.w3.org/1999/xlink">
<path d="M13.315,9.863L97.545,9.863C99.452,9.863 100.997,11.409 100.997,13.315L100.997,68.548C100.997,70.454 99.452,72 97.545,72L13.315,72C11.409,72 9.863,70.454 9.863,68.548L9.863,13.315C9.863,11.409 11.409,9.863 13.315,9.863Z" clip-rule="evenodd" fill-rule="evenodd" fill="#8397CC"/>
<path d="M13.315,9.863C11.41,9.866 9.865,11.41 9.863,13.315L9.863,66.082L91.627,66.082C93.533,66.08 95.077,64.536 95.079,62.63L95.079,9.863L13.315,9.863Z" clip-rule="evenodd" fill-rule="evenodd" fill="#6D83B5"/>
<path d="M3.452,0L87.682,0C89.589,0 91.134,1.546 91.134,3.452L91.134,58.685C91.134,60.591 89.589,62.137 87.682,62.137L3.452,62.137C1.546,62.137 0,60.591 0,58.685L0,3.452C0,1.546 1.546,0 3.452,0Z" clip-rule="evenodd" fill-rule="evenodd" fill="#3D58FF"/>
<path d="M3.945,7.397C3.948,5.492 5.492,3.948 7.397,3.945L91.134,3.945L91.134,3.452C91.132,1.547 89.588,0.002 87.682,0L3.452,0C1.547,0.002 0.002,1.547 0,3.452L0,58.685C0.002,60.59 1.547,62.135 3.452,62.137L3.945,62.137L3.945,7.397Z" clip-rule="evenodd" fill-rule="evenodd" fill="#3146CC"/>
<path d="M60.066,45.37L81.764,45.37C83.671,45.37 85.217,46.916 85.217,48.822L85.217,52.767C85.217,54.674 83.671,56.219 81.764,56.219L60.066,56.219C58.16,56.219 56.614,54.674 56.614,52.767L56.614,48.822C56.614,46.916 58.16,45.37 60.066,45.37Z" clip-rule="evenodd" fill-rule="evenodd" fill="#3146CC"/>
<path d="M58.093,43.397L79.792,43.397C81.698,43.397 83.244,44.943 83.244,46.85L83.244,50.795C83.244,52.701 81.698,54.247 79.792,54.247L58.093,54.247C56.187,54.247 54.641,52.701 54.641,50.795L54.641,46.85C54.641,44.943 56.187,43.397 58.093,43.397Z" clip-rule="evenodd" fill-rule="evenodd" fill="#F65D6D"/>
<path d="M56.614,52.767L56.614,48.822C56.616,46.917 58.16,45.372 60.066,45.37L81.764,45.37C82.191,45.371 82.612,45.45 83.009,45.605C82.493,44.277 81.217,43.401 79.792,43.397L58.093,43.397C56.188,43.4 54.643,44.944 54.641,46.85L54.641,50.795C54.644,52.22 55.52,53.496 56.849,54.012C56.694,53.615 56.615,53.193 56.614,52.767Z" clip-rule="evenodd" fill-rule="evenodd" fill="#E25065"/>
<path d="M91.134,9.863L91.134,3.452C91.132,1.547 89.588,0.002 87.682,0L3.452,0C1.547,0.002 0.002,1.547 0,3.452L0,9.863L91.134,9.863Z" clip-rule="evenodd" fill-rule="evenodd" fill="#FFFFFF"/>
<path d="M3.945,7.397C3.948,5.492 5.492,3.948 7.397,3.945L91.134,3.945L91.134,3.452C91.132,1.547 89.588,0.002 87.682,0L3.452,0C1.547,0.002 0.002,1.547 0,3.452L0,9.863L3.945,9.863L3.945,7.397Z" clip-rule="evenodd" fill-rule="evenodd" fill="#E8EFFF"/>
<path d="M28.8,38.466C28.156,38.466 27.586,38.048 27.391,37.434L22.065,20.667C21.888,20.158 22.001,19.593 22.36,19.192C22.719,18.791 23.268,18.616 23.793,18.737C24.318,18.858 24.736,19.254 24.884,19.771L30.21,36.539C30.354,36.989 30.274,37.479 29.995,37.861C29.716,38.242 29.272,38.467 28.8,38.466L28.8,38.466ZM14.706,35.67C14.301,35.672 13.913,35.505 13.635,35.211L8.299,29.625C7.755,29.052 7.755,28.154 8.299,27.581L13.635,21.995C14.198,21.402 15.136,21.378 15.728,21.942C16.321,22.506 16.345,23.443 15.781,24.037L11.416,28.603L15.781,33.169C16.19,33.597 16.304,34.229 16.071,34.772C15.839,35.317 15.304,35.67 14.711,35.67L14.706,35.67ZM37.568,35.67C36.975,35.673 36.438,35.32 36.204,34.776C35.97,34.23 36.083,33.598 36.493,33.169L40.853,28.603L36.493,24.037C35.929,23.443 35.953,22.506 36.546,21.942C37.138,21.378 38.076,21.402 38.639,21.995L43.975,27.583C44.519,28.156 44.519,29.054 43.975,29.627L38.639,35.211C38.361,35.505 37.973,35.672 37.568,35.67L37.568,35.67Z" clip-rule="evenodd" fill-rule="evenodd" fill="#F65D6D"/>
<path d="M81.764,37.48L52.767,37.48C51.95,37.48 51.288,36.817 51.288,36C51.288,35.184 51.95,34.521 52.767,34.521L81.764,34.521C82.581,34.521 83.244,35.184 83.244,36C83.244,36.817 82.581,37.48 81.764,37.48M81.764,28.603L52.767,28.603C51.95,28.603 51.288,27.941 51.288,27.124C51.288,26.307 51.95,25.644 52.767,25.644L81.764,25.644C82.581,25.644 83.244,26.307 83.244,27.124C83.244,27.941 82.581,28.603 81.764,28.603M81.764,20.713L62.334,20.713C61.517,20.713 60.855,20.05 60.855,19.233C60.855,18.417 61.517,17.754 62.334,17.754L81.764,17.754C82.581,17.754 83.244,18.417 83.244,19.233C83.244,20.05 82.581,20.713 81.764,20.713M10.751,46.357L9.37,46.357C8.553,46.357 7.89,45.694 7.89,44.877C7.89,44.06 8.553,43.398 9.37,43.398L10.751,43.398C11.568,43.398 12.23,44.06 12.23,44.877C12.23,45.694 11.568,46.357 10.751,46.357M48.23,46.357L18.345,46.357C17.528,46.357 16.866,45.694 16.866,44.877C16.866,44.06 17.528,43.398 18.345,43.398L48.23,43.398C49.047,43.398 49.71,44.06 49.71,44.877C49.71,45.694 49.047,46.357 48.23,46.357M48.23,54.247L9.37,54.247C8.553,54.247 7.89,53.585 7.89,52.768C7.89,51.951 8.553,51.288 9.37,51.288L48.23,51.288C49.047,51.288 49.71,51.951 49.71,52.768C49.71,53.585 49.047,54.247 48.23,54.247M55.43,20.713L52.767,20.713C51.95,20.713 51.288,20.05 51.288,19.233C51.288,18.417 51.95,17.754 52.767,17.754L55.43,17.754C56.247,17.754 56.91,18.417 56.91,19.233C56.91,20.05 56.247,20.713 55.43,20.713Z" clip-rule="evenodd" fill-rule="evenodd" fill="#FFFFFF"/>
<path d="M83.737,7.052L81.764,7.052C80.948,7.052 80.285,6.246 80.285,5.252C80.285,4.258 80.948,3.452 81.764,3.452L83.737,3.452C84.554,3.452 85.216,4.258 85.216,5.252C85.216,6.246 84.554,7.052 83.737,7.052M75.847,7.052L73.874,7.052C73.057,7.052 72.395,6.246 72.395,5.252C72.395,4.258 73.057,3.452 73.874,3.452L75.847,3.452C76.663,3.452 77.326,4.258 77.326,5.252C77.326,6.246 76.663,7.052 75.847,7.052Z" clip-rule="evenodd" fill-rule="evenodd" fill="#8397CC"/>
</svg>
