<svg width="120" height="120" viewBox="0 0 120 120" fill="none" xmlns="http://www.w3.org/2000/svg" xmlns:xlink="http://www.w3.org/1999/xlink">
<path d="M0,80L8,80L8,-0.002L0,-0.002L0,80Z" clip-rule="evenodd" fill-rule="evenodd" fill="#41EAD4"/>
<path d="M16,80L24,80L24,20L16,20L16,80Z" clip-rule="evenodd" fill-rule="evenodd" fill="#FF9F1C"/>
<path d="M32,80L40,80L40,12L32,12L32,80Z" clip-rule="evenodd" fill-rule="evenodd" fill="#1B98E0"/>
<path d="M48,80L56,80L56,44L48,44L48,80Z" clip-rule="evenodd" fill-rule="evenodd" fill="#F71735"/>
<path d="M64,84L0,84L0,80L62,80L62,40C62,38.898 62.898,38 64,38C65.102,38 66,38.898 66,40L66,82C66,83.102 65.102,84 64,84Z" clip-rule="evenodd" fill-rule="evenodd" fill="#4F5D75"/>
<path d="M29.844,103.82C19.554,102.132 17.868,100.446 16.18,90.156C16.164,90.062 16.094,90 16,90C15.906,90 15.836,90.062 15.82,90.156C14.132,100.446 12.446,102.132 2.156,103.82C2.062,103.836 2,103.906 2,104C2,104.094 2.062,104.164 2.156,104.18C12.446,105.866 14.132,107.554 15.82,117.844C15.836,117.938 15.906,118 16,118C16.094,118 16.164,117.938 16.18,117.844C17.868,107.554 19.554,105.866 29.844,104.18C29.938,104.164 30,104.094 30,104C30,103.906 29.938,103.836 29.844,103.82M117.844,15.82C107.554,14.132 105.868,12.446 104.18,2.156C104.164,2.062 104.094,2 104,2C103.906,2 103.836,2.062 103.82,2.156C102.134,12.446 100.446,14.132 90.156,15.82C90.062,15.836 90,15.906 90,16C90,16.094 90.062,16.164 90.156,16.18C100.446,17.868 102.134,19.554 103.82,29.844C103.836,29.938 103.906,30 104,30C104.094,30 104.164,29.938 104.18,29.844C105.868,19.554 107.554,17.868 117.844,16.18C117.938,16.164 118,16.094 118,16C118,15.906 117.938,15.836 117.844,15.82Z" clip-rule="evenodd" fill-rule="evenodd" fill="#1B98E0"/>
<path d="M87.422,84L100.578,84C111.304,84 120,92.696 120,103.422L120,120L68,120L68,103.422C68,92.696 76.696,84 87.422,84Z" clip-rule="evenodd" fill-rule="evenodd" fill="#2D3142"/>
<path d="M100.219,104L94.001,95.43L87.781,104L86.001,84L102.001,84L100.219,104Z" clip-rule="evenodd" fill-rule="evenodd" fill="#247BA0"/>
<path d="M94,96L98,84L90,84L94,96Z" clip-rule="evenodd" fill-rule="evenodd" fill="#F71735"/>
<path d="M110,120L106,120L106,102C106,100.898 106.898,100 108,100C109.102,100 110,100.898 110,102L110,120ZM82,120L78,120L78,102C78,100.898 78.898,100 80,100C81.102,100 82,100.898 82,102L82,120Z" clip-rule="evenodd" fill-rule="evenodd" fill="#4F5D75"/>
<path d="M107.844,61.758L107.844,62.86C110.304,63.04 112.164,65.172 112,67.64C112.016,68.884 111.578,70.086 110.782,71.04C110.054,71.914 108.976,72.43 107.844,72.438C107.704,77.118 104.954,81.32 100.718,83.32L96.922,85.298C95.086,86.234 92.914,86.234 91.078,85.298L87.282,83.32C85.172,82.258 83.376,80.664 82.062,78.704C80.828,76.844 80.172,74.664 80.156,72.438C77.774,72.102 76,70.062 76,67.648C76,65.242 77.774,63.196 80.156,62.86L80.156,62L97.204,58L102.024,58L107.844,61.758Z" clip-rule="evenodd" fill-rule="evenodd" fill="#FFBF69"/>
<path d="M110,64C107.148,63.976 104.438,62.734 102.546,60.602L100,62L99.82,58C96.21,61.922 91.094,64.102 85.774,64L78,64L78,59.204C78,51.242 83.86,48 91.094,48L96.906,48C104.14,48 110,51.25 110,59.204L110,64Z" clip-rule="evenodd" fill-rule="evenodd" fill="#2D3142"/>
</svg>
