<svg width="80" height="96" viewBox="0 0 80 96" fill="none" xmlns="http://www.w3.org/2000/svg" xmlns:xlink="http://www.w3.org/1999/xlink">
<mask id="mask_0_1_930" style="mask-type:alpha" maskUnits="userSpaceOnUse" x="0" y="0" width="39.652172" height="48">
<path d="M0,96L79.304,96L79.304,0L0,0L0,96Z" clip-rule="evenodd" fill-rule="evenodd" fill="#000000"/>
</mask>
<mask id="mask_0_1_938" style="mask-type:alpha" maskUnits="userSpaceOnUse" x="0" y="0" width="39.652172" height="48">
<path d="M0,96L79.304,96L79.304,0L0,0L0,96Z" clip-rule="evenodd" fill-rule="evenodd" fill="#000000"/>
</mask>
<path d="M35.478,6.261L8.348,6.261C7.198,6.261 6.261,5.324 6.261,4.174C6.261,3.024 7.198,2.087 8.348,2.087L35.478,2.087C36.628,2.087 37.565,3.024 37.565,4.174C37.565,5.324 36.628,6.261 35.478,6.261M70.956,6.261L43.826,6.261C42.676,6.261 41.739,5.324 41.739,4.174C41.739,3.024 42.676,2.087 43.826,2.087L70.956,2.087C72.106,2.087 73.043,3.024 73.043,4.174C73.043,5.324 72.106,6.261 70.956,6.261Z" clip-rule="evenodd" fill-rule="evenodd" fill="#DAD7E5"/>
<path d="M8.348,35.478L8.348,33.391C8.404,17.845 19.809,4.679 35.184,2.395C36.342,2.241 37.402,3.04 37.565,4.199C37.728,5.346 36.92,6.415 35.772,6.569C22.468,8.552 12.595,19.941 12.522,33.391L12.522,35.478C12.522,36.628 11.585,37.565 10.435,37.565C9.285,37.565 8.348,36.628 8.348,35.478M66.783,35.478L66.783,33.391C66.783,19.907 56.886,8.462 43.532,6.53C42.384,6.367 41.576,5.307 41.739,4.149C41.902,3.001 42.962,2.193 44.12,2.356C59.543,4.581 70.982,17.812 70.956,33.391L70.956,35.478C70.956,36.628 70.019,37.565 68.87,37.565C67.72,37.565 66.783,36.628 66.783,35.478Z" clip-rule="evenodd" fill-rule="evenodd" fill="#DAD7E5"/>
<path d="M58.435,50.087L50.087,73.044L29.217,73.044L20.87,50.087L39.652,29.218L58.435,50.087Z" clip-rule="evenodd" fill-rule="evenodd" fill="#6FABE6"/>
<path d="M58.435,50.087L51.61,68.869L48.628,68.869C41.234,68.844 34.533,64.483 31.524,57.725C28.516,50.976 29.756,43.077 34.687,37.565L40.948,30.659L58.435,50.087Z" clip-rule="evenodd" fill-rule="evenodd" fill="#82BCF4"/>
<path d="M41.739,31.531L41.739,52.173C41.739,53.323 40.802,54.26 39.652,54.26C38.502,54.26 37.565,53.323 37.565,52.173L37.565,31.531L39.652,29.217L41.739,31.531Z" clip-rule="evenodd" fill-rule="evenodd" fill="#FFDE76"/>
<path d="M43.826,56.347C43.834,58.426 42.303,60.196 40.247,60.488C38.185,60.782 36.219,59.52 35.641,57.52C35.063,55.523 36.042,53.405 37.941,52.549C39.229,51.969 40.729,52.084 41.919,52.85C43.1,53.616 43.826,54.928 43.826,56.347Z" clip-rule="evenodd" fill-rule="evenodd" fill="#FFCC66"/>
<path d="M43.451,58.06C41.869,58.761 40.026,58.419 38.806,57.196C37.58,55.973 37.24,54.13 37.942,52.548C39.523,51.847 41.364,52.189 42.587,53.412C43.81,54.635 44.152,56.478 43.451,58.06Z" clip-rule="evenodd" fill-rule="evenodd" fill="#FFDE76"/>
<path d="M33.391,81.392L45.913,81.392L45.913,73.044L33.391,73.044L33.391,81.392Z" clip-rule="evenodd" fill-rule="evenodd" fill="#F16F39"/>
<path d="M45.913,73.044L45.913,77.218L41.739,77.218C39.433,77.218 37.565,75.35 37.565,73.044L45.913,73.044Z" clip-rule="evenodd" fill-rule="evenodd" fill="#F8834B"/>
<path d="M52.174,96L27.13,96L29.217,81.392L50.087,81.392C51.865,93.913 51.358,90.424 52.174,96Z" clip-rule="evenodd" fill-rule="evenodd" fill="#F16F39"/>
<path d="M51.571,91.826L43.932,91.826C41.282,91.818 38.763,90.668 37.027,88.671C35.29,86.665 34.508,84.017 34.875,81.392L50.087,81.392L51.571,91.826Z" clip-rule="evenodd" fill-rule="evenodd" fill="#F8834B"/>
<path d="M8.348,4.174C8.348,6.48 6.48,8.348 4.174,8.348C1.868,8.348 0,6.48 0,4.174C0,1.868 1.868,0 4.174,0C6.48,0 8.348,1.868 8.348,4.174Z" clip-rule="evenodd" fill-rule="evenodd" fill="#374F68"/>
<path d="M79.304,4.174C79.304,6.48 77.437,8.348 75.13,8.348C72.824,8.348 70.957,6.48 70.957,4.174C70.957,1.868 72.824,0 75.13,0C77.437,0 79.304,1.868 79.304,4.174Z" clip-rule="evenodd" fill-rule="evenodd" fill="#374F68"/>
<path d="M64.696,43.826L73.043,43.826L73.043,35.478L64.696,35.478L64.696,43.826ZM6.261,43.826L14.609,43.826L14.609,35.478L6.261,35.478L6.261,43.826ZM35.478,8.348L43.826,8.348L43.826,0L35.478,0L35.478,8.348Z" clip-rule="evenodd" fill-rule="evenodd" fill="#DB5669"/>
<path d="M78.929,5.885C77.348,6.586 75.505,6.244 74.282,5.021C73.059,3.798 72.717,1.957 73.418,0.375C75,-0.326 76.842,0.017 78.065,1.239C79.288,2.462 79.631,4.303 78.929,5.885M7.973,5.885C6.391,6.586 4.55,6.244 3.327,5.021C2.102,3.798 1.762,1.957 2.463,0.375C4.045,-0.326 5.886,0.017 7.107,1.239C8.332,2.462 8.672,4.303 7.973,5.885Z" clip-rule="evenodd" fill-rule="evenodd" fill="#425B72"/>
<path d="M43.826,0L43.826,6.261C40.37,6.261 37.565,3.456 37.565,0L43.826,0ZM73.043,35.478L73.043,41.739C69.587,41.739 66.783,38.934 66.783,35.478L73.043,35.478ZM14.609,35.478L14.609,41.739C11.153,41.739 8.348,38.934 8.348,35.478L14.609,35.478Z" clip-rule="evenodd" fill-rule="evenodd" fill="#F26674"/>
</svg>
