<svg width="84" height="84" viewBox="0 0 84 84" fill="none" xmlns="http://www.w3.org/2000/svg" xmlns:xlink="http://www.w3.org/1999/xlink">
<mask id="mask_0_1_1063" style="mask-type:alpha" maskUnits="userSpaceOnUse" x="0" y="0" width="42" height="42">
<rect  x="0" y="0" width="84" height="84" fill="#000000"/>
</mask>
<path d="M82.17,36.103L82.17,47.896L73.765,48.738L73.765,48.74C70.782,46.696 67.251,45.605 63.636,45.612C63.334,45.612 63.035,45.619 62.737,45.633L62.737,45.619C64.307,36.603 59.85,27.61 51.725,23.399C43.599,19.188 33.682,20.731 27.22,27.211C20.758,33.692 19.245,43.614 23.479,51.726C27.714,59.84 36.719,64.271 45.731,62.674C45.716,62.945 45.711,63.219 45.711,63.492C45.705,67.066 46.777,70.558 48.788,73.512L47.949,82.223L36.157,82.223L35.313,73.483C31.489,72.636 27.849,71.102 24.574,68.954L17.836,74.535L9.515,66.217L15.097,59.479C12.932,56.212 11.397,52.569 10.569,48.738L1.83,47.896L1.83,36.103L10.569,35.262C11.417,31.437 12.95,27.798 15.097,24.52L9.515,17.782L17.836,9.464L24.574,15.045C27.84,12.879 31.482,11.343 35.313,10.516L36.157,1.776L47.949,1.776L48.791,10.516C52.616,11.363 56.256,12.897 59.533,15.045L66.271,9.464L74.484,17.782L68.903,24.52C71.068,27.788 72.603,31.43 73.431,35.262L82.17,36.103Z" clip-rule="evenodd" fill-rule="evenodd" fill="#00ACEA"/>
<path d="M48.788,73.513C46.777,70.558 45.705,67.067 45.71,63.493C45.71,63.219 45.716,62.945 45.731,62.675C46.163,53.462 53.525,46.085 62.737,45.634C63.035,45.619 63.334,45.612 63.636,45.612C72.148,45.63 79.468,51.647 81.133,59.996C82.798,68.344 78.347,76.709 70.492,79.991C62.638,83.274 53.558,80.564 48.788,73.513Z" clip-rule="evenodd" fill-rule="evenodd" fill="#FEDB41"/>
<g mask="url(#mask_0_1_1063)">
<path d="M80.348,46.244L74.226,46.858C71.395,45.058 68.151,44.013 64.801,43.823C64.85,43.218 64.875,42.609 64.875,42.001C64.875,29.396 54.656,19.179 42.053,19.179C29.449,19.179 19.231,29.397 19.231,42.001C19.231,54.605 29.449,64.823 42.053,64.823C42.676,64.823 43.303,64.796 43.927,64.745C44.129,68.015 45.155,71.182 46.908,73.95L46.291,80.348L37.815,80.348L37.13,73.283C37.053,72.496 36.473,71.849 35.699,71.686C32.091,70.886 28.658,69.439 25.565,67.415C24.895,66.984 24.023,67.037 23.41,67.545L17.951,72.067L11.982,66.101L16.503,60.645C17.017,60.023 17.063,59.138 16.616,58.467C14.579,55.39 13.134,51.96 12.354,48.353C12.185,47.576 11.534,46.998 10.742,46.921L3.652,46.238L3.652,37.762L10.742,37.08C11.534,37.003 12.185,36.424 12.353,35.647C13.156,32.038 14.605,28.604 16.63,25.51C17.063,24.841 17.01,23.969 16.503,23.355L11.982,17.899L17.951,11.932L23.408,16.452C24.03,16.966 24.915,17.012 25.587,16.565C28.663,14.528 32.092,13.082 35.699,12.301C36.472,12.144 37.052,11.502 37.13,10.717L37.815,3.652L46.291,3.652L46.974,10.716C47.051,11.504 47.631,12.151 48.406,12.314C52.015,13.114 55.449,14.561 58.543,16.585C59.212,17.017 60.085,16.964 60.697,16.455L66.147,11.94L72.025,17.891L67.497,23.355C66.983,23.977 66.937,24.862 67.385,25.533C69.421,28.611 70.866,32.04 71.646,35.647C71.815,36.424 72.466,37.003 73.257,37.079L80.348,37.762L80.348,46.244ZM63.635,79.548C58.294,79.551 53.297,76.906 50.297,72.486C48.493,69.834 47.531,66.7 47.537,63.493C47.537,63.226 47.543,62.991 47.555,62.757C47.946,54.485 54.556,47.863 62.827,47.458C63.093,47.445 63.365,47.438 63.635,47.438C72.514,47.428 79.72,54.615 79.734,63.493C79.734,72.346 72.513,79.548 63.635,79.548L63.635,79.548ZM44.035,61.064C43.377,61.133 42.715,61.169 42.053,61.17C31.466,61.172 22.882,52.589 22.881,42.002C22.88,31.414 31.462,22.831 42.049,22.83C52.637,22.829 61.22,31.411 61.222,41.999L61.222,42C61.22,42.65 61.186,43.3 61.12,43.946C52.185,45.084 45.156,52.128 44.035,61.064L44.035,61.064ZM82.347,34.286L74.906,33.569C74.093,30.435 72.83,27.435 71.157,24.663L75.891,18.947C76.489,18.225 76.442,17.168 75.784,16.5L67.57,8.181C66.905,7.507 65.835,7.453 65.106,8.058L59.379,12.801C56.607,11.134 53.611,9.869 50.484,9.043L49.767,1.625C49.674,0.694 48.885,-0.011 47.949,0L36.157,0C35.221,-0.011 34.432,0.694 34.339,1.625L33.621,9.053C30.487,9.865 27.488,11.126 24.716,12.797L19,8.061C18.274,7.46 17.211,7.509 16.544,8.175L8.225,16.492C7.558,17.158 7.508,18.222 8.109,18.948L12.853,24.674C11.187,27.448 9.922,30.442 9.096,33.569L1.653,34.286C0.716,34.376 0.001,35.163 0,36.104L0,47.896C0.001,48.837 0.716,49.624 1.653,49.714L9.094,50.431C9.907,53.565 11.17,56.565 12.843,59.337L8.109,65.053C7.508,65.779 7.558,66.843 8.225,67.509L16.544,75.827C17.21,76.493 18.274,76.543 19,75.942L24.727,71.199C27.498,72.866 30.493,74.131 33.62,74.957L34.338,82.374C34.431,83.306 35.221,84.011 36.157,84L47.949,84C48.886,84.011 49.674,83.305 49.767,82.374L50.197,77.921C53.851,81.31 58.651,83.194 63.635,83.194C74.526,83.194 83.387,74.356 83.387,63.491C83.385,58.538 81.516,53.768 78.153,50.133L82.354,49.713C83.288,49.62 84,48.835 84,47.896L84,36.104C83.999,35.163 83.284,34.376 82.347,34.286L82.347,34.286Z" clip-rule="evenodd" fill-rule="evenodd" fill="#083863"/>
</g>
<path d="M64.096,52.288C63.087,52.288 62.269,53.106 62.269,54.114L62.269,63.219L57.863,67.593C57.145,68.301 57.138,69.458 57.846,70.175C58.552,70.885 59.699,70.888 60.409,70.183L60.416,70.175L65.355,65.266C65.707,64.927 65.91,64.463 65.922,63.975L65.922,54.114C65.922,53.106 65.104,52.288 64.096,52.288Z" clip-rule="evenodd" fill-rule="evenodd" fill="#083863"/>
</svg>
