<svg width="108" height="108" viewBox="0 0 108 108" fill="none" xmlns="http://www.w3.org/2000/svg" xmlns:xlink="http://www.w3.org/1999/xlink">
<mask id="mask_0_1_1020" style="mask-type:alpha" maskUnits="userSpaceOnUse" x="0" y="-0.166016" width="53.166668" height="53.201317">
<rect  x="0" y="-0.166" width="106.333" height="106.403" fill="#000000"/>
</mask>
<path d="M27.5,56.407L27.5,80.901C29.691,81.674 31.159,83.742 31.167,86.071L31.167,89.737C31.167,90.748 30.344,91.571 29.333,91.571L11,91.571C9.99,91.571 9.167,90.748 9.167,89.737L9.167,86.071C9.174,83.742 10.643,81.674 12.833,80.901L12.833,56.407C10.643,55.634 9.174,53.566 9.167,51.237L9.167,47.571C9.167,46.56 9.99,45.737 11,45.737L29.333,45.737C30.344,45.737 31.167,46.56 31.167,47.571L31.167,51.237C31.159,53.566 29.691,55.634 27.5,56.407Z" clip-rule="evenodd" fill-rule="evenodd" fill="#96A1C3"/>
<path d="M27.5,56.407L27.5,80.901C29.691,81.674 31.159,83.742 31.167,86.071L31.167,89.737C31.167,90.748 30.343,91.571 29.333,91.571L16.5,91.571C16.493,91.521 16.493,91.47 16.5,91.428L16.5,87.468C16.507,85.061 17.946,82.892 20.167,81.968L20.167,55.434C17.917,54.495 16.463,52.282 16.5,49.84L16.5,45.88C16.493,45.838 16.493,45.787 16.5,45.737L29.333,45.737C30.343,45.737 31.167,46.56 31.167,47.571L31.167,51.237C31.159,53.566 29.691,55.634 27.5,56.407Z" clip-rule="evenodd" fill-rule="evenodd" fill="#CCD3EB"/>
<path d="M60.5,56.407L60.5,80.901C62.691,81.674 64.159,83.742 64.167,86.071L64.167,89.737C64.167,90.748 63.344,91.571 62.333,91.571L44,91.571C42.99,91.571 42.167,90.748 42.167,89.737L42.167,86.071C42.174,83.742 43.643,81.674 45.833,80.901L45.833,56.407C43.643,55.634 42.174,53.566 42.167,51.237L42.167,47.571C42.167,46.56 42.99,45.737 44,45.737L62.333,45.737C63.344,45.737 64.167,46.56 64.167,47.571L64.167,51.237C64.159,53.566 62.691,55.634 60.5,56.407Z" clip-rule="evenodd" fill-rule="evenodd" fill="#96A1C3"/>
<path d="M60.5,56.407L60.5,80.901C62.691,81.674 64.159,83.742 64.167,86.071L64.167,89.737C64.167,90.748 63.343,91.571 62.333,91.571L49.5,91.571C49.493,91.521 49.493,91.47 49.5,91.428L49.5,87.468C49.507,85.061 50.946,82.892 53.167,81.968L53.167,55.434C50.917,54.495 49.463,52.282 49.5,49.84L49.5,45.88C49.493,45.838 49.493,45.787 49.5,45.737L62.333,45.737C63.343,45.737 64.167,46.56 64.167,47.571L64.167,51.237C64.159,53.566 62.691,55.634 60.5,56.407Z" clip-rule="evenodd" fill-rule="evenodd" fill="#CCD3EB"/>
<path d="M93.5,56.407L93.5,80.901C95.691,81.674 97.159,83.742 97.167,86.071L97.167,89.737C97.167,90.748 96.344,91.571 95.333,91.571L77,91.571C75.99,91.571 75.167,90.748 75.167,89.737L75.167,86.071C75.174,83.742 76.643,81.674 78.833,80.901L78.833,56.407C76.643,55.634 75.174,53.566 75.167,51.237L75.167,47.571C75.167,46.56 75.99,45.737 77,45.737L95.333,45.737C96.344,45.737 97.167,46.56 97.167,47.571L97.167,51.237C97.159,53.566 95.691,55.634 93.5,56.407Z" clip-rule="evenodd" fill-rule="evenodd" fill="#96A1C3"/>
<path d="M99,34.736C99,35.746 98.177,36.569 97.167,36.569L9.167,36.569C8.393,36.569 7.705,36.082 7.441,35.359C7.183,34.628 7.412,33.812 8.013,33.324L8.508,32.903L26.017,18.586L45.503,2.631C46.306,1.973 47.194,1.428 48.147,1.006C48.763,0.706 49.414,0.469 50.087,0.304C52.107,-0.233 54.226,-0.233 56.247,0.304C56.705,0.411 57.156,0.561 57.585,0.748L58.186,1.006C58.925,1.335 59.625,1.743 60.278,2.216L60.83,2.631L77.33,16.144L82.98,20.764L84.333,21.903L89.998,26.543L95.498,31.033L97.753,32.866L98.248,33.29C98.714,33.627 98.993,34.164 99,34.736M93.5,56.406L93.5,80.901C95.691,81.675 97.159,83.741 97.167,86.069L97.167,89.736C97.167,90.748 96.343,91.569 95.333,91.569L82.5,91.569C82.493,91.522 82.493,91.469 82.5,91.426L82.5,87.468C82.507,85.059 83.946,82.892 86.167,81.968L86.167,55.433C83.917,54.494 82.463,52.281 82.5,49.839L82.5,45.879C82.493,45.837 82.493,45.786 82.5,45.736L95.333,45.736C96.343,45.736 97.167,46.559 97.167,47.569L97.167,51.236C97.159,53.566 95.691,55.632 93.5,56.406Z" clip-rule="evenodd" fill-rule="evenodd" fill="#CCD3EB"/>
<path d="M95.57,31.07L25.666,31.07C24.893,31.07 24.205,30.582 23.941,29.859C23.683,29.128 23.912,28.312 24.513,27.824L25.008,27.403L42.517,13.086L57.585,0.748L58.186,1.007C58.925,1.335 59.627,1.744 60.278,2.217L60.83,2.631L77.33,16.144L82.98,20.764L84.333,21.903L89.998,26.543L95.57,31.07Z" clip-rule="evenodd" fill-rule="evenodd" fill="#F5F7FF"/>
<path d="M7.333,32.904L99,32.904C102.036,32.904 104.5,35.368 104.5,38.404L104.5,43.904C104.5,46.94 102.036,49.404 99,49.404L7.333,49.404C4.297,49.404 1.833,46.94 1.833,43.904L1.833,38.404C1.833,35.368 4.297,32.904 7.333,32.904Z" clip-rule="evenodd" fill-rule="evenodd" fill="#CCD3EB"/>
<path d="M53.861,16.404L52.028,16.404C51.526,16.404 51.111,15.995 51.111,15.487C51.111,14.979 51.526,14.571 52.028,14.571L56.833,14.571C57.843,14.571 58.666,13.747 58.666,12.737C58.666,11.727 57.843,10.904 56.833,10.904L55,10.904L55,9.071C55,8.06 54.177,7.237 53.166,7.237C52.156,7.237 51.333,8.06 51.333,9.071L51.333,10.904C48.805,11.096 46.907,13.304 47.1,15.837C47.294,18.366 49.5,20.263 52.028,20.071L53.861,20.071C54.369,20.071 54.778,20.479 54.778,20.987C54.778,21.495 54.369,21.904 53.861,21.904L49.5,21.904C48.49,21.904 47.666,22.727 47.666,23.737C47.666,24.747 48.49,25.571 49.5,25.571L51.333,25.571L51.333,27.404C51.333,28.414 52.156,29.237 53.166,29.237C54.177,29.237 55,28.414 55,27.404L55,25.406C57.257,24.861 58.745,22.707 58.459,20.401C58.166,18.094 56.19,16.367 53.861,16.404Z" clip-rule="evenodd" fill-rule="evenodd" fill="#F5F7FF"/>
<path d="M97.167,87.903L9.167,87.903C4.103,87.903 0,92.006 0,97.07L0,104.403C0,105.415 0.823,106.237 1.833,106.237L104.5,106.237C105.51,106.237 106.333,105.415 106.333,104.403L106.333,97.07C106.333,92.006 102.23,87.903 97.167,87.903Z" clip-rule="evenodd" fill-rule="evenodd" fill="#96A1C3"/>
<path d="M84.663,24.511C84.32,24.933 83.803,25.184 83.251,25.184C82.829,25.191 82.413,25.041 82.1,24.762L80.666,23.594C80.001,22.922 79.951,21.862 80.545,21.138C81.139,20.408 82.191,20.25 82.98,20.766L84.333,21.904C84.727,22.205 84.985,22.648 85.05,23.136C85.106,23.624 84.971,24.124 84.663,24.511Z" clip-rule="evenodd" fill-rule="evenodd" fill="#033C59"/>
<path d="M52.028,14.57L56.833,14.57C57.843,14.57 58.666,13.746 58.666,12.736C58.666,11.726 57.843,10.903 56.833,10.903L55,10.903L55,9.07C55,8.059 54.177,7.236 53.166,7.236C52.156,7.236 51.333,8.059 51.333,9.07L51.333,10.903C48.805,11.095 46.907,13.303 47.1,15.836C47.294,18.365 49.5,20.262 52.028,20.07L53.861,20.07C54.369,20.07 54.778,20.478 54.778,20.986C54.778,21.494 54.369,21.903 53.861,21.903L49.5,21.903C48.49,21.903 47.666,22.726 47.666,23.736C47.666,24.746 48.49,25.57 49.5,25.57L51.333,25.57L51.333,27.403C51.333,28.413 52.156,29.236 53.166,29.236C54.177,29.236 55,28.413 55,27.403L55,25.406C57.257,24.86 58.745,22.706 58.459,20.4C58.166,18.093 56.19,16.366 53.861,16.403L52.028,16.403C51.526,16.403 51.111,15.994 51.111,15.486C51.111,14.978 51.526,14.57 52.028,14.57Z" clip-rule="evenodd" fill-rule="evenodd" fill="#0074FF"/>
<g mask="url(#mask_0_1_1020)">
<path d="M102.667,102.57L3.667,102.57L3.667,97.07C3.667,94.036 6.131,91.57 9.167,91.57L97.167,91.57C100.203,91.57 102.667,94.036 102.667,97.07L102.667,102.57ZM12.833,86.07C12.833,85.06 13.657,84.237 14.667,84.237L25.667,84.237C26.677,84.237 27.5,85.06 27.5,86.07L27.5,87.903L12.833,87.903L12.833,86.07ZM7.333,45.737C6.323,45.737 5.5,44.913 5.5,43.903L5.5,38.403C5.5,37.393 6.323,36.57 7.333,36.57L99,36.57C100.01,36.57 100.833,37.393 100.833,38.403L100.833,43.903C100.833,44.913 100.01,45.737 99,45.737L7.333,45.737ZM82.5,80.57L89.833,80.57L89.833,56.737L82.5,56.737L82.5,80.57ZM78.833,86.07C78.833,85.06 79.657,84.237 80.667,84.237L91.667,84.237C92.677,84.237 93.5,85.06 93.5,86.07L93.5,87.903L78.833,87.903L78.833,86.07ZM58.667,53.07L47.667,53.07C46.656,53.07 45.833,52.249 45.833,51.237L45.833,49.403L60.5,49.403L60.5,51.237C60.5,52.249 59.677,53.07 58.667,53.07L58.667,53.07ZM49.5,80.57L56.833,80.57L56.833,56.737L49.5,56.737L49.5,80.57ZM45.833,86.07C45.833,85.06 46.656,84.237 47.667,84.237L58.667,84.237C59.677,84.237 60.5,85.06 60.5,86.07L60.5,87.903L45.833,87.903L45.833,86.07ZM16.5,80.57L23.833,80.57L23.833,56.737L16.5,56.737L16.5,80.57ZM14.667,53.07C13.657,53.07 12.833,52.249 12.833,51.237L12.833,49.403L27.5,49.403L27.5,51.237C27.5,52.249 26.677,53.07 25.667,53.07L14.667,53.07ZM27.5,80.902L27.5,56.407C29.691,55.633 31.159,53.565 31.167,51.237L31.167,49.403L42.167,49.403L42.167,51.237C42.174,53.565 43.643,55.633 45.833,56.407L45.833,80.902C43.643,81.675 42.174,83.742 42.167,86.07L42.167,87.903L31.167,87.903L31.167,86.07C31.159,83.742 29.691,81.675 27.5,80.902L27.5,80.902ZM60.5,80.902L60.5,56.407C62.691,55.633 64.159,53.565 64.167,51.237L64.167,49.403L75.167,49.403L75.167,51.237C75.174,53.565 76.643,55.633 78.833,56.407L78.833,80.902C76.643,81.675 75.174,83.742 75.167,86.07L75.167,87.903L64.167,87.903L64.167,86.07C64.159,83.742 62.691,81.675 60.5,80.902L60.5,80.902ZM93.5,51.237C93.5,52.249 92.677,53.07 91.667,53.07L80.667,53.07C79.657,53.07 78.833,52.249 78.833,51.237L78.833,49.403L93.5,49.403L93.5,51.237ZM97.167,87.903L97.167,86.07C97.159,83.742 95.691,81.675 93.5,80.902L93.5,56.407C95.691,55.633 97.159,53.565 97.167,51.237L97.167,49.403L99,49.403C102.036,49.403 104.5,46.939 104.5,43.903L104.5,38.403C104.5,35.367 102.036,32.903 99,32.903L97.825,32.903L90.07,26.58C89.575,26.085 88.845,25.915 88.187,26.136C87.52,26.366 87.047,26.945 86.955,27.64C86.869,28.335 87.177,29.015 87.763,29.402L92.032,32.903L14.302,32.903L47.81,5.403C50.53,3.284 54.248,2.961 57.292,4.58C57.721,4.817 58.137,5.095 58.524,5.403L75.024,18.895C75.805,19.419 76.857,19.254 77.451,18.532C78.045,17.8 77.995,16.741 77.33,16.073L60.83,2.582C60.65,2.432 60.458,2.289 60.264,2.158C59.62,1.672 58.925,1.256 58.186,0.928C53.99,-0.991 49.071,-0.355 45.503,2.582L26.017,18.587L8.508,32.903L7.333,32.903C4.297,32.903 1.833,35.367 1.833,38.403L1.833,43.903C1.833,46.939 4.297,49.403 7.333,49.403L9.167,49.403L9.167,51.237C9.174,53.565 10.642,55.633 12.833,56.407L12.833,80.902C10.642,81.675 9.174,83.742 9.167,86.07L9.167,87.903C4.103,87.903 0,92.006 0,97.07L0,104.403C0,105.415 0.823,106.237 1.833,106.237L104.5,106.237C105.51,106.237 106.333,105.415 106.333,104.403L106.333,97.07C106.333,92.006 102.23,87.903 97.167,87.903L97.167,87.903Z" clip-rule="evenodd" fill-rule="evenodd" fill="#033C59"/>
</g>
</svg>
