<svg width="128" height="116" viewBox="0 0 128 116" fill="none" xmlns="http://www.w3.org/2000/svg" xmlns:xlink="http://www.w3.org/1999/xlink">
<mask id="mask_0_1_1077" style="mask-type:alpha" maskUnits="userSpaceOnUse" x="0" y="0" width="63.999802" height="36.491798">
<rect  x="0" y="0" width="128" height="72.984" fill="#000000"/>
</mask>
<path d="M84.656,75.341C73.282,86.717 54.742,86.717 43.344,75.341C31.96,63.935 31.96,45.397 43.344,34.021C49.024,28.319 56.5,25.459 64,25.459C71.75,25.451 79.18,28.521 84.656,33.999C96.062,45.397 96.062,63.935 84.656,75.341L84.656,75.341ZM92.976,76.539C98.226,69.607 100.804,61.013 100.242,52.341C100.156,51.077 100.024,49.841 99.796,48.599C98.602,41.397 95.242,34.521 89.68,28.983C89.218,28.521 88.742,28.061 88.258,27.639C87.242,26.741 86.218,25.921 85.156,25.139C72.562,16.099 55.422,16.099 42.82,25.139C41.758,25.897 40.718,26.755 39.718,27.639C39.258,28.077 38.782,28.499 38.32,28.959C32.976,34.279 29.43,41.139 28.18,48.577C27.976,49.819 27.82,51.077 27.742,52.319C27.102,62.397 30.618,72.677 38.296,80.341C45.382,87.461 54.704,90.999 64,90.999C71.718,90.999 79.422,88.539 85.882,83.663L110.116,112.117C111.578,113.827 113.68,114.841 115.922,114.927C118.156,115.013 120.336,114.163 121.922,112.577C125.218,109.281 125,103.841 121.438,100.803L92.976,76.539Z" clip-rule="evenodd" fill-rule="evenodd" fill="#292F64"/>
<g mask="url(#mask_0_1_1077)">
<path d="M104.438,20.882C110.204,20.882 114.884,16.202 114.884,10.436C114.884,4.678 110.204,0 104.438,0C98.68,-0.016 94,4.678 94,10.436C94,16.202 98.68,20.882 104.438,20.882M111.782,22.358L111.422,22.32L105.618,30.64C105.36,31.022 104.922,31.25 104.462,31.242C104,31.242 103.564,31 103.282,30.616L97.462,22.304L97.102,22.342C94.68,22.616 92.36,23.358 90.204,24.578L89.462,25L90.102,25.578C90.618,26.038 91.118,26.522 91.618,27.022C97.398,32.804 101.156,40.078 102.478,48.116L102.564,48.64L119.142,48.64L119.618,40.178C119.672,39.406 120.328,38.82 121.102,38.842L121.118,38.842C121.898,38.882 122.5,39.562 122.462,40.342L122.024,48.64L128,48.64L128,40.522C128,31.218 121.024,23.398 111.782,22.358M23.54,20.882C29.296,20.882 33.976,16.202 33.976,10.436C33.976,4.678 29.296,0 23.54,0C17.782,0 13.104,4.678 13.104,10.436C13.078,16.202 17.782,20.882 23.54,20.882M37.898,25.6L38.524,25.038L37.796,24.616C35.68,23.406 33.328,22.64 30.898,22.358L30.54,22.32L24.758,30.616C24.5,30.96 24.062,31.178 23.578,31.178C23.078,31.178 22.656,30.984 22.422,30.616L16.604,22.304L16.204,22.358C6.96,23.358 0,31.178 0,40.538L0,48.664L5.938,48.664L5.5,40.358C5.46,39.578 6.062,38.898 7,38.858C7.704,38.858 8.32,39.484 8.36,40.218L8.82,48.678L25.398,48.678L25.476,48.164C26.82,40.14 30.578,32.858 36.382,27.062C36.882,26.538 37.382,26.078 37.898,25.6M64,49.984C68.978,49.984 73.024,45.922 73.024,40.96C73.024,36 68.978,31.936 64,31.936C59.024,31.936 54.976,36 54.976,40.96C54.976,45.922 59.024,49.984 64,49.984M70.32,51.484L69.962,51.436L65.18,58.256C64.938,58.618 64.478,58.82 64,58.82C63.524,58.82 63.078,58.6 62.844,58.256L58.062,51.436L57.704,51.484C50.204,52.382 44.54,58.82 44.54,66.42L44.54,72.984L49.04,72.984L48.68,66.282C48.64,65.5 49.258,64.804 50.204,64.742C50.882,64.742 51.5,65.358 51.54,66.118L51.922,72.984L76.078,72.984L76.462,66.118C76.516,65.336 77.18,64.734 77.962,64.756L77.978,64.756C78.758,64.804 79.36,65.484 79.32,66.282L78.962,72.984L83.462,72.984L83.462,66.42C83.438,58.842 77.798,52.422 70.32,51.484Z" clip-rule="evenodd" fill-rule="evenodd" fill="#292F64"/>
</g>
</svg>
