<svg width="106" height="100" viewBox="0 0 106 100" fill="none" xmlns="http://www.w3.org/2000/svg" xmlns:xlink="http://www.w3.org/1999/xlink">
<mask id="mask_0_1_906" style="mask-type:alpha" maskUnits="userSpaceOnUse" x="0" y="0" width="52.120701" height="49.792999">
<rect  x="0" y="0" width="104.241" height="99.586" fill="#000000"/>
</mask>
<path d="M1.001,38.499L1.001,70.827L28.999,86.993L57.001,70.827L57.001,38.499L28.999,22.335L1.001,38.499Z" clip-rule="evenodd" fill-rule="evenodd" fill="#B386BC"/>
<path d="M29,86.992L57,70.828L56.96,38.5L28.96,54.664L29,86.992Z" clip-rule="evenodd" fill-rule="evenodd" fill="#CBAAD0"/>
<path d="M1.085,38.454L28.999,54.562L56.913,38.454L28.999,22.334L1.085,38.454Z" clip-rule="evenodd" fill-rule="evenodd" fill="#EADDED"/>
<path d="M71,79.586C71,90.078 62.492,98.586 52,98.586C41.508,98.586 33,90.078 33,79.586C33,69.094 41.508,60.586 52,60.586C62.492,60.586 71,69.094 71,79.586Z" clip-rule="evenodd" fill-rule="evenodd" fill="#EADDED"/>
<path d="M75,2.742L57,48.702L57,61.288C65.062,63.484 71,70.828 71,79.586C71,82.202 70.46,84.782 69.414,87.18L75,90.406L103,74.234L75,2.742Z" clip-rule="evenodd" fill-rule="evenodd" fill="#CBAAD0"/>
<path d="M75,2.742L57,48.702L57,61.288C65.062,63.484 71,70.828 71,79.586C71,82.202 70.46,84.782 69.414,87.18L75,90.406L75,2.742Z" clip-rule="evenodd" fill-rule="evenodd" fill="#B386BC"/>
<g mask="url(#mask_0_1_906)">
<path d="M70.86,86.172C70.97,85.868 71.078,85.554 71.172,85.242C71.266,84.922 71.344,84.602 71.422,84.274C71.492,83.984 71.564,83.704 71.626,83.414C71.704,83.024 71.75,82.618 71.806,82.218C71.836,81.984 71.876,81.766 71.9,81.532C71.962,80.882 72,80.234 72,79.586C72,78.962 71.962,78.352 71.906,77.742C71.884,77.516 71.852,77.298 71.82,77.078C71.742,76.43 71.634,75.79 71.484,75.148C71.414,74.86 71.344,74.57 71.258,74.274C71.18,73.976 71.094,73.672 71,73.376C70.938,73.18 70.86,72.992 70.79,72.804C70.516,72.048 70.196,71.312 69.836,70.594C69.806,70.524 69.774,70.462 69.742,70.39C69.54,70.016 69.336,69.648 69.11,69.29L68.9,68.938C68.672,68.578 68.438,68.234 68.188,67.89L67.97,67.602C65.47,64.258 61.986,61.782 58,60.516L58,48.898L74,8.04L74,88.68L70.672,86.758C70.742,86.562 70.798,86.368 70.86,86.172L70.86,86.172ZM52,97.586C43.446,97.586 36.276,91.578 34.46,83.562C34.156,82.258 34.008,80.922 34,79.586C34,69.656 42.07,61.586 52,61.586C52.742,61.586 53.492,61.64 54.25,61.742L54.516,61.782C55.172,61.876 55.836,62.016 56.5,62.188L56.736,62.258C60.04,63.156 63.016,64.984 65.32,67.524L65.406,67.626C65.704,67.954 65.984,68.29 66.258,68.64L66.36,68.782C67.422,70.188 68.266,71.742 68.884,73.406C68.946,73.57 69.008,73.734 69.064,73.898C69.164,74.196 69.242,74.484 69.328,74.782C69.47,75.29 69.586,75.798 69.688,76.304C69.742,76.632 69.798,76.962 69.836,77.29C69.868,77.492 69.9,77.704 69.914,77.914C69.97,78.462 70,79.024 70,79.586C70,80.204 69.97,80.82 69.906,81.43C69.9,81.492 69.884,81.554 69.876,81.618C69.82,82.164 69.736,82.712 69.626,83.25C69.618,83.298 69.594,83.352 69.586,83.406C69.47,83.954 69.328,84.492 69.156,85.024C69.142,85.086 69.11,85.148 69.086,85.218C68.922,85.726 68.728,86.226 68.516,86.718C65.75,93.11 59.392,97.586 52,97.586L52,97.586ZM30,84.672L30,55.32L56,40.304L56,59.992C54.688,59.718 53.344,59.586 52,59.586C40.968,59.586 32,68.554 32,79.586C32,80.204 32.032,80.836 32.094,81.468C32.156,82.094 32.242,82.704 32.36,83.312L30,84.672ZM2,40.304L28,55.32L28,84.672L2,69.664L2,40.304ZM54.712,38.742L29,53.586L3.29,38.742L29,23.898L54.712,38.742ZM76,88.672L76,8.04L101.758,73.804L76,88.672ZM104.242,74.68L75,0L58,43.406L58,38.328L29,21.586L0,38.328L0,70.82L29,87.554L32.854,85.336C35.328,93.57 42.968,99.586 52,99.586C59.79,99.586 66.54,95.102 69.836,88.578L75,91.554L104.242,74.68Z" clip-rule="evenodd" fill-rule="evenodd" fill="#8E5AA4"/>
</g>
</svg>
