<svg width="30" height="40" viewBox="0 0 30 40" fill="none" xmlns="http://www.w3.org/2000/svg" xmlns:xlink="http://www.w3.org/1999/xlink">
<path d="M26.044,17.714L23.595,17.714L23.595,12.492C23.595,7.43 19.429,3.265 14.369,3.265C9.309,3.265 5.143,7.43 5.143,12.492L5.143,17.714L2.694,17.714L2.694,12.492C2.694,6.039 7.922,0.816 14.369,0.816C20.817,0.816 26.044,6.039 26.044,12.492L26.044,17.714Z" clip-rule="evenodd" fill-rule="evenodd" fill="#545454"/>
<path d="M3.919,19.022C3.187,19.022 2.616,19.592 2.616,20.325L2.616,36.001C2.616,36.735 3.187,37.306 3.919,37.306L24.82,37.306C25.552,37.306 26.122,36.735 26.122,36.001L26.122,20.325C26.122,19.592 25.552,19.022 24.82,19.022L3.919,19.022ZM24.82,39.917L3.919,39.917C1.799,39.917 0,38.122 0,36.001L0,20.325C0,18.205 1.799,16.41 3.919,16.41L24.82,16.41C26.939,16.41 28.738,18.205 28.738,20.325L28.738,36.001C28.738,38.205 26.939,39.917 24.82,39.917L24.82,39.917Z" clip-rule="evenodd" fill-rule="evenodd" fill="#545454"/>
<path d="M16.98,24.244C16.98,25.714 15.84,26.856 14.369,26.856C12.899,26.856 11.758,25.714 11.758,24.244C11.758,22.774 12.899,21.633 14.369,21.633C15.84,21.633 16.98,22.857 16.98,24.244Z" clip-rule="evenodd" fill-rule="evenodd" fill="#545454"/>
<path d="M15.023,24.244L13.714,24.244L12.412,32.083L16.327,32.083L15.023,24.244Z" clip-rule="evenodd" fill-rule="evenodd" fill="#545454"/>
</svg>
