<svg width="38" height="30" viewBox="0 0 38 30" fill="none" xmlns="http://www.w3.org/2000/svg" xmlns:xlink="http://www.w3.org/1999/xlink">
<path d="M37.567,4.755L36.063,3.247L22.112,17.198C20.369,18.94 17.437,18.94 15.689,17.198L1.743,3.328L0.234,4.832L10.619,15.216L0.234,25.601L1.743,27.105L12.123,16.721L14.186,18.783C15.456,20.053 17.117,20.764 18.86,20.764C20.607,20.764 22.269,20.053 23.539,18.783L25.597,16.721L35.982,27.105L37.485,25.601L27.106,15.216L37.567,4.755Z" clip-rule="evenodd" fill-rule="evenodd" fill="#545454"/>
<path d="M3.247,2.931C2.612,2.931 2.14,3.408 2.14,4.039L2.14,26.393C2.14,27.024 2.612,27.501 3.247,27.501L34.554,27.501C35.189,27.501 35.666,27.024 35.666,26.393L35.666,4.039C35.666,3.408 35.189,2.931 34.554,2.931L3.247,2.931ZM34.635,29.798L3.329,29.798C1.504,29.798 0,28.293 0,26.47L0,4.12C0,2.296 1.504,0.792 3.329,0.792L34.635,0.792C36.458,0.792 37.963,2.296 37.963,4.12L37.963,26.47C37.963,28.293 36.458,29.798 34.635,29.798L34.635,29.798Z" clip-rule="evenodd" fill-rule="evenodd" fill="#545454"/>
</svg>
