<svg width="116" height="116" viewBox="0 0 116 116" fill="none" xmlns="http://www.w3.org/2000/svg" xmlns:xlink="http://www.w3.org/1999/xlink">
<path d="M60,64C60,62.895 59.105,62 58,62C56.895,62 56,62.895 56,64L60,64ZM56,84C56,85.105 56.895,86 58,86C59.105,86 60,85.105 60,84L56,84ZM56,64L56,84L60,84L60,64L56,64Z" fill="#000000"/>
<path d="M8,0L108,0C112.422,0 116,3.578 116,8L116,108C116,112.422 112.422,116 108,116L8,116C3.578,116 0,112.422 0,108L0,8C0,3.578 3.578,0 8,0Z" clip-rule="evenodd" fill-rule="evenodd" fill="#EBEBEB"/>
<path d="M116,8L116,24L0,24L0,8C0,3.578 3.578,0 8,0L108,0C112.422,0 116,3.578 116,8Z" clip-rule="evenodd" fill-rule="evenodd" fill="#232D4D"/>
<path d="M14,12C14,13.102 13.102,14 12,14C10.898,14 10,13.102 10,12C10,10.898 10.898,10 12,10C13.102,10 14,10.898 14,12Z" clip-rule="evenodd" fill-rule="evenodd" fill="#FFFFFF"/>
<path d="M24,12C24,13.102 23.102,14 22,14C20.898,14 20,13.102 20,12C20,10.898 20.898,10 22,10C23.102,10 24,10.898 24,12Z" clip-rule="evenodd" fill-rule="evenodd" fill="#FFFFFF"/>
<path d="M34,12C34,13.102 33.102,14 32,14C30.898,14 30,13.102 30,12C30,10.898 30.898,10 32,10C33.102,10 34,10.898 34,12Z" clip-rule="evenodd" fill-rule="evenodd" fill="#FFFFFF"/>
<path d="M104,10L84,10C82.898,10 82,10.898 82,12C82,13.102 82.898,14 84,14L104,14C105.102,14 106,13.102 106,12C106,10.898 105.102,10 104,10Z" clip-rule="evenodd" fill-rule="evenodd" fill="#FFFFFF"/>
<path d="M88,72L60,72L60,62C60,60.898 59.102,60 58,60C56.898,60 56,60.898 56,62L56,72L28,72C26.898,72 26,72.898 26,74L26,88C26,89.102 26.898,90 28,90C29.102,90 30,89.102 30,88L30,76L56,76L56,88C56,89.102 56.898,90 58,90C59.102,90 60,89.102 60,88L60,76L86,76L86,88C86,89.102 86.898,90 88,90C89.102,90 90,89.102 90,88L90,74C90,72.898 89.102,72 88,72Z" clip-rule="evenodd" fill-rule="evenodd" fill="#CDCDCD"/>
<path d="M44,34L72,34C74.21,34 76,35.79 76,38L76,62C76,64.21 74.21,66 72,66L44,66C41.79,66 40,64.21 40,62L40,38C40,35.79 41.79,34 44,34Z" clip-rule="evenodd" fill-rule="evenodd" fill="#1AB3FF"/>
<path d="M68,60L48,60C46.898,60 46,59.102 46,58C46,56.898 46.898,56 48,56L68,56C69.102,56 70,56.898 70,58C70,59.102 69.102,60 68,60M68,52L48,52C46.898,52 46,51.102 46,50C46,48.898 46.898,48 48,48L68,48C69.102,48 70,48.898 70,50C70,51.102 69.102,52 68,52M68,44L56,44C54.898,44 54,43.102 54,42C54,40.898 54.898,40 56,40L68,40C69.102,40 70,40.898 70,42C70,43.102 69.102,44 68,44Z" clip-rule="evenodd" fill-rule="evenodd" fill="#0094E4"/>
<path d="M50,42C50,43.102 49.102,44 48,44C46.898,44 46,43.102 46,42C46,40.898 46.898,40 48,40C49.102,40 50,40.898 50,42Z" clip-rule="evenodd" fill-rule="evenodd" fill="#0094E4"/>
<path d="M22,84L34,84C36.21,84 38,85.79 38,88L38,100C38,102.21 36.21,104 34,104L22,104C19.79,104 18,102.21 18,100L18,88C18,85.79 19.79,84 22,84Z" clip-rule="evenodd" fill-rule="evenodd" fill="#1AB3FF"/>
<path d="M94,104L82,104C79.79,104 78,102.21 78,100L78,88C78,85.79 79.79,84 82,84L94,84C96.21,84 98,85.79 98,88L98,100C98,102.21 96.21,104 94,104Z" clip-rule="evenodd" fill-rule="evenodd" fill="#1AB3FF"/>
<path d="M52,84L64,84C66.21,84 68,85.79 68,88L68,100C68,102.21 66.21,104 64,104L52,104C49.79,104 48,102.21 48,100L48,88C48,85.79 49.79,84 52,84Z" clip-rule="evenodd" fill-rule="evenodd" fill="#1AB3FF"/>
<path d="M90,92L86,92C84.898,92 84,92.898 84,94C84,95.102 84.898,96 86,96L90,96C91.102,96 92,95.102 92,94C92,92.898 91.102,92 90,92M60,92L56,92C54.898,92 54,92.898 54,94C54,95.102 54.898,96 56,96L60,96C61.102,96 62,95.102 62,94C62,92.898 61.102,92 60,92M30,92L26,92C24.898,92 24,92.898 24,94C24,95.102 24.898,96 26,96L30,96C31.102,96 32,95.102 32,94C32,92.898 31.102,92 30,92Z" clip-rule="evenodd" fill-rule="evenodd" fill="#0094E4"/>
</svg>
