<svg width="24" height="24" viewBox="0 0 24 24" fill="none" xmlns="http://www.w3.org/2000/svg" xmlns:xlink="http://www.w3.org/1999/xlink">
<path d="M13.176,0.747L15.849,6.114C16.046,6.503 16.42,6.775 16.856,6.84L22.852,7.713C23.202,7.764 23.522,7.947 23.733,8.227C23.949,8.509 24.038,8.861 23.986,9.208C23.944,9.493 23.807,9.761 23.602,9.963L19.256,14.172C18.938,14.472 18.792,14.903 18.867,15.329L19.941,21.255C20.057,21.963 19.584,22.632 18.867,22.777C18.576,22.824 18.276,22.777 18.014,22.642L12.66,19.853C12.262,19.651 11.794,19.651 11.4,19.853L6.047,22.642C5.385,22.993 4.562,22.75 4.204,22.103C4.07,21.845 4.023,21.55 4.065,21.264L5.136,15.339C5.213,14.917 5.068,14.481 4.749,14.181L0.402,9.976C0.15,9.727 0.004,9.39 0.004,9.039C0.004,8.687 0.15,8.35 0.402,8.101C0.609,7.895 0.88,7.759 1.176,7.722L7.173,6.85C7.607,6.784 7.982,6.517 8.175,6.124L10.757,0.747C10.982,0.292 11.456,0.001 11.976,0.011L12.136,0.011C12.586,0.067 12.98,0.343 13.176,0.747Z" clip-rule="evenodd" fill-rule="evenodd" fill="#FCCB40"/>
<path d="M12.009,19.693C11.774,19.693 11.554,19.772 11.343,19.875L6.009,22.655C5.367,22.978 4.556,22.72 4.204,22.102C4.068,21.849 4.017,21.559 4.064,21.272L5.136,15.362C5.207,14.93 5.062,14.499 4.748,14.194L0.393,9.985C-0.132,9.47 -0.132,8.63 0.393,8.11C0.599,7.909 0.867,7.777 1.152,7.735L7.172,6.849C7.63,6.783 7.964,6.526 8.174,6.123L10.79,0.685C10.986,0.244 11.657,-0.061 12.018,0.01C12.009,0.371 12.009,19.454 12.009,19.693Z" clip-rule="evenodd" fill-rule="evenodd" fill="#FAC025"/>
</svg>
