<svg width="34" height="34" viewBox="0 0 34 34" fill="none" xmlns="http://www.w3.org/2000/svg" xmlns:xlink="http://www.w3.org/1999/xlink">
<path d="M3.414,0.586C2.633,-0.195 1.367,-0.195 0.586,0.586C-0.195,1.367 -0.195,2.633 0.586,3.414L3.414,0.586ZM30.586,33.414C31.367,34.195 32.633,34.195 33.414,33.414C34.195,32.633 34.195,31.367 33.414,30.586L30.586,33.414ZM21.352,21.259C22.107,20.453 22.066,19.187 21.259,18.432C20.453,17.677 19.187,17.719 18.432,18.525L21.352,21.259ZM15.887,21.064L16.387,19.127L16.378,19.125L15.887,21.064ZM12.936,18.113L14.875,17.622L14.873,17.613L12.936,18.113ZM15.475,15.568C16.281,14.813 16.323,13.547 15.568,12.741C14.813,11.934 13.547,11.893 12.741,12.648L15.475,15.568ZM13.683,4.467C12.607,4.716 11.936,5.79 12.185,6.866C12.434,7.942 13.508,8.613 14.584,8.364L13.683,4.467ZM32,17L33.766,17.939C34.07,17.368 34.078,16.685 33.789,16.106L32,17ZM27.52,20.067C26.811,20.913 26.922,22.175 27.769,22.884C28.615,23.594 29.877,23.483 30.586,22.636L27.52,20.067ZM26.312,26.693C27.191,26.025 27.362,24.77 26.693,23.891C26.025,23.012 24.77,22.841 23.891,23.509L26.312,26.693ZM17,27.909L17,29.909C17.011,29.909 17.022,29.909 17.033,29.909L17,27.909ZM2,17L0.237,16.055C-0.07,16.627 -0.079,17.313 0.211,17.894L2,17ZM10.113,10.488C10.991,9.817 11.158,8.562 10.488,7.684C9.817,6.807 8.562,6.639 7.684,7.309L10.113,10.488ZM0.586,3.414L30.586,33.414L33.414,30.586L3.414,0.586L0.586,3.414ZM18.432,18.525C17.905,19.089 17.12,19.316 16.387,19.127L15.388,23C17.551,23.558 19.835,22.88 21.352,21.259L18.432,18.525ZM16.378,19.125C15.64,18.938 15.062,18.36 14.875,17.622L10.997,18.603C11.544,20.765 13.235,22.456 15.397,23.003L16.378,19.125ZM14.873,17.613C14.684,16.88 14.911,16.095 15.475,15.568L12.741,12.648C11.12,14.165 10.442,16.449 11,18.612L14.873,17.613ZM14.584,8.364C15.376,8.181 16.184,8.091 17,8.091L17,4.091C15.888,4.091 14.778,4.214 13.683,4.467L14.584,8.364ZM17,8.091C20.974,8.091 24.232,10.365 26.62,12.913C27.797,14.168 28.705,15.43 29.319,16.38C29.624,16.854 29.854,17.245 30.004,17.512C30.079,17.645 30.134,17.747 30.169,17.813C30.186,17.846 30.198,17.869 30.205,17.883C30.209,17.89 30.211,17.895 30.212,17.896C30.213,17.897 30.213,17.898 30.213,17.897C30.213,17.897 30.212,17.897 30.212,17.896C30.212,17.896 30.212,17.896 30.212,17.896C30.211,17.895 30.211,17.894 32,17C33.789,16.106 33.789,16.105 33.788,16.104C33.788,16.104 33.788,16.103 33.787,16.103C33.787,16.101 33.786,16.1 33.785,16.099C33.784,16.096 33.782,16.092 33.78,16.088C33.776,16.079 33.77,16.068 33.763,16.054C33.749,16.027 33.729,15.989 33.704,15.942C33.654,15.848 33.583,15.716 33.49,15.551C33.305,15.221 33.034,14.76 32.679,14.21C31.971,13.115 30.919,11.65 29.539,10.178C26.814,7.271 22.572,4.091 17,4.091L17,8.091ZM30.234,16.061C29.478,17.481 28.565,18.82 27.52,20.067L30.586,22.636C31.799,21.188 32.872,19.62 33.766,17.939L30.234,16.061ZM23.891,23.509C21.896,25.026 19.469,25.869 16.967,25.909L17.033,29.909C20.389,29.854 23.641,28.724 26.312,26.693L23.891,23.509ZM17,25.909C13.026,25.909 9.768,23.635 7.38,21.087C6.203,19.832 5.295,18.57 4.681,17.62C4.376,17.146 4.146,16.755 3.996,16.488C3.921,16.355 3.866,16.253 3.831,16.187C3.814,16.154 3.802,16.131 3.795,16.117C3.791,16.11 3.789,16.105 3.788,16.104C3.787,16.103 3.787,16.102 3.787,16.103C3.787,16.103 3.788,16.103 3.788,16.104C3.788,16.104 3.788,16.104 3.788,16.104C3.789,16.105 3.789,16.106 2,17C0.211,17.894 0.211,17.895 0.212,17.896C0.212,17.896 0.212,17.897 0.213,17.897C0.213,17.899 0.214,17.9 0.215,17.901C0.216,17.904 0.218,17.908 0.22,17.912C0.224,17.921 0.23,17.932 0.237,17.946C0.251,17.973 0.271,18.011 0.296,18.058C0.346,18.152 0.417,18.284 0.51,18.449C0.695,18.779 0.966,19.24 1.321,19.79C2.029,20.885 3.081,22.35 4.461,23.822C7.186,26.729 11.428,29.909 17,29.909L17,25.909ZM3.763,17.945C5.321,15.039 7.489,12.493 10.113,10.488L7.684,7.309C4.608,9.66 2.066,12.645 0.237,16.055L3.763,17.945Z" fill="#545454"/>
</svg>
