<svg width="14" height="24" viewBox="0 0 14 24" fill="none" xmlns="http://www.w3.org/2000/svg" xmlns:xlink="http://www.w3.org/1999/xlink">
<path d="M3.414,0.586C2.633,-0.195 1.367,-0.195 0.586,0.586C-0.195,1.367 -0.195,2.633 0.586,3.414L3.414,0.586ZM12,12L13.414,13.414C14.195,12.633 14.195,11.367 13.414,10.586L12,12ZM0.586,20.586C-0.195,21.367 -0.195,22.633 0.586,23.414C1.367,24.195 2.633,24.195 3.414,23.414L0.586,20.586ZM0.586,3.414L10.586,13.414L13.414,10.586L3.414,0.586L0.586,3.414ZM10.586,10.586L0.586,20.586L3.414,23.414L13.414,13.414L10.586,10.586Z" fill="#332DA1"/>
</svg>
