<svg width="36" height="24" viewBox="0 0 36 24" fill="none" xmlns="http://www.w3.org/2000/svg" xmlns:xlink="http://www.w3.org/1999/xlink">
<path d="M16.824,5.23C21.902,5.23 26.787,6.939 30.467,10.002C30.744,10.238 31.187,10.235 31.46,9.995L34.109,7.654C34.248,7.533 34.325,7.367 34.324,7.196C34.322,7.024 34.243,6.86 34.103,6.739C24.443,-1.365 9.203,-1.365 -0.457,6.739C-0.597,6.86 -0.676,7.024 -0.677,7.196C-0.679,7.367 -0.602,7.532 -0.463,7.654L2.187,9.995C2.459,10.236 2.903,10.239 3.18,10.002C6.861,6.938 11.745,5.23 16.824,5.23ZM16.824,12.845C19.614,12.845 22.305,13.753 24.373,15.393C24.653,15.625 25.094,15.62 25.366,15.381L28.013,13.041C28.152,12.918 28.229,12.751 28.227,12.578C28.225,12.405 28.144,12.24 28.002,12.12C21.704,6.991 11.95,6.991 5.652,12.12C5.509,12.24 5.428,12.405 5.426,12.578C5.425,12.751 5.502,12.918 5.642,13.041L8.287,15.381C8.56,15.62 9.001,15.625 9.28,15.393C11.347,13.754 14.036,12.846 16.824,12.845ZM22.125,17.969C22.129,18.142 22.051,18.31 21.91,18.431L17.332,22.475C17.198,22.594 17.015,22.661 16.824,22.661C16.633,22.661 16.45,22.594 16.316,22.475L11.738,18.431C11.596,18.31 11.519,18.142 11.523,17.969C11.527,17.795 11.613,17.631 11.76,17.515C14.683,15.35 18.965,15.35 21.888,17.515C22.035,17.631 22.121,17.795 22.125,17.969Z" clip-rule="evenodd" fill-rule="evenodd" fill="#A0A4AB"/>
</svg>
